<?xml version="1.0" standalone="no"?>
<!DOCTYPE svg PUBLIC "-//W3C//DTD SVG 20010904//EN"
 "http://www.w3.org/TR/2001/REC-SVG-20010904/DTD/svg10.dtd">
<svg version="1.0" xmlns="http://www.w3.org/2000/svg"
 width="168.000000pt" height="173.000000pt" viewBox="0 0 168.000000 173.000000"
 preserveAspectRatio="xMidYMid meet">

<g transform="translate(0.000000,173.000000) scale(0.100000,-0.100000)"
fill="#000000" stroke="none">
<path d="M735 1689 c-178 -22 -339 -102 -470 -233 -268 -265 -321 -671 -129
-996 73 -124 192 -236 324 -304 113 -59 211 -86 340 -93 400 -21 754 253 841
652 20 91 15 274 -10 369 -61 231 -219 422 -436 526 -148 72 -307 99 -460 79z
m9 -91 c38 -35 41 -62 10 -77 l-27 -12 23 -16 c12 -8 29 -31 36 -50 18 -42 3
-81 -39 -101 -32 -15 -60 -9 -87 21 -19 20 -28 67 -12 67 4 0 14 4 22 10 12 7
10 13 -12 34 -63 58 -38 142 44 145 9 1 28 -9 42 -21z m171 -30 l8 -53 15 48
c14 44 18 47 49 47 18 0 33 -3 33 -7 0 -5 -20 -64 -44 -133 -42 -122 -44 -125
-75 -128 -20 -2 -31 1 -31 10 0 7 -7 69 -15 138 -8 69 -15 126 -15 128 0 1 15
2 34 2 33 0 34 -1 41 -52z m252 -7 c55 -25 69 -52 54 -102 -13 -44 -22 -51
-75 -59 -36 -5 -41 -9 -54 -50 -8 -25 -16 -47 -18 -49 -4 -4 -64 19 -64 25 0
2 64 186 85 242 6 17 23 15 72 -7z m-632 -16 c31 -30 31 -46 3 -64 -22 -13
-22 -14 14 -32 67 -34 75 -118 14 -148 -37 -17 -71 -6 -100 32 l-21 28 24 18
24 19 -31 16 c-85 44 -63 151 31 155 10 1 29 -10 42 -24z m949 -437 c8 -14 6
-22 -9 -37 -24 -23 -198 -123 -308 -177 -42 -21 -76 -42 -75 -45 2 -4 50 -43
108 -86 110 -82 130 -111 90 -133 -24 -13 -22 -14 -120 60 -41 31 -96 71 -123
89 l-48 32 -102 -36 c-261 -94 -476 -100 -616 -18 -53 31 -121 97 -121 118 0
30 82 105 154 140 167 83 350 62 598 -67 l96 -50 144 74 c79 41 172 93 208
116 68 43 105 49 124 20z m-1046 -798 c3 -8 -1 -11 -10 -8 -10 4 -14 -1 -14
-16 1 -23 -25 -29 -32 -7 -3 8 0 11 7 7 7 -4 11 0 11 12 0 33 28 42 38 12z
m837 -19 c-4 -20 -3 -22 3 -7 6 14 11 16 16 8 9 -15 -1 -32 -19 -32 -18 0 -38
37 -31 56 10 25 36 4 31 -25z m-785 -21 c0 -14 -7 -20 -22 -21 -21 0 -21 -1
-4 -8 15 -6 16 -10 7 -15 -22 -14 -36 10 -23 39 14 30 42 33 42 5z m732 -5 c7
-17 8 -32 1 -46 -9 -21 -10 -21 -30 12 -16 24 -19 37 -11 46 16 19 27 16 40
-12z m-683 -36 c-10 -10 -19 -24 -19 -30 0 -5 -4 -7 -10 -4 -15 9 17 65 34 59
12 -4 11 -9 -5 -25z m611 10 c0 -5 -6 -7 -12 -4 -7 4 -2 -3 12 -14 21 -17 23
-22 10 -30 -8 -5 -19 -7 -24 -4 -6 4 -5 8 3 11 8 3 6 9 -8 19 -12 8 -19 19
-16 24 8 12 35 11 35 -2z m-542 -22 c12 5 10 -2 -9 -28 -23 -32 -24 -33 -27
-11 -4 27 8 63 15 45 2 -7 12 -9 21 -6z m361 -62 c0 -26 -2 -27 -9 -10 -5 11
-9 34 -9 50 0 26 2 27 9 10 5 -11 9 -33 9 -50z m-315 28 c-4 -16 -11 -32 -17
-38 -6 -7 -8 -2 -3 15 3 14 6 31 6 38 0 6 5 12 10 12 6 0 8 -11 4 -27z m390 1
c9 -35 -1 -43 -14 -13 -10 24 -10 24 -7 -3 5 -34 -8 -37 -17 -5 -10 37 -7 47
13 47 12 0 21 -9 25 -26z m-316 -7 c2 -10 -3 -17 -12 -17 -9 0 -16 -5 -16 -11
0 -5 5 -7 10 -4 6 3 10 1 10 -4 0 -16 -30 -13 -36 3 -7 19 14 58 29 53 7 -2
13 -11 15 -20z m72 -22 c0 -19 -5 -35 -11 -35 -7 0 -9 10 -7 25 3 14 2 25 -3
25 -4 0 -10 -12 -12 -27 -3 -23 -4 -21 -6 10 -1 31 2 37 19 37 16 0 20 -7 20
-35z m65 25 c3 -5 1 -10 -6 -10 -10 0 -10 -3 -1 -12 19 -19 14 -38 -10 -37
-19 1 -19 2 -5 6 17 4 17 6 2 23 -9 10 -14 24 -10 29 8 14 22 14 30 1z"/>
<path d="M674 1590 c-52 -21 -39 -77 28 -125 37 -27 49 -41 46 -58 -4 -31 -38
-34 -59 -6 -20 27 -34 21 -24 -11 9 -28 43 -40 77 -28 24 9 28 15 28 49 0 35
-5 42 -50 76 -33 25 -50 45 -50 59 0 31 31 40 52 15 19 -24 28 -27 28 -8 -1
32 -40 52 -76 37z"/>
<path d="M690 1541 c0 -6 5 -13 10 -16 6 -3 10 1 10 9 0 9 -4 16 -10 16 -5 0
-10 -4 -10 -9z"/>
<path d="M700 1428 c0 -18 18 -34 28 -24 3 4 -2 14 -11 23 -16 16 -17 16 -17
1z"/>
<path d="M876 1493 c7 -60 13 -114 14 -120 0 -7 6 -13 14 -13 9 0 27 38 50
108 40 119 41 125 24 120 -7 -3 -24 -42 -39 -89 -29 -93 -30 -92 -44 44 -4 35
-11 57 -19 57 -10 0 -10 -22 0 -107z"/>
<path d="M1074 1448 c-33 -101 -38 -136 -14 -112 5 5 16 27 23 49 14 39 15 40
56 37 39 -4 42 -2 57 33 13 32 13 40 1 59 -8 12 -31 27 -50 33 l-36 11 -37
-110z m91 68 c16 -12 18 -19 10 -42 -11 -30 -40 -43 -57 -26 -11 11 7 82 21
82 4 0 16 -6 26 -14z"/>
<path d="M1137 1479 c-3 -13 -1 -19 6 -16 15 5 22 37 9 37 -5 0 -12 -9 -15
-21z"/>
<path d="M452 1534 c-44 -30 -19 -89 48 -114 49 -18 60 -29 60 -55 0 -32 -26
-39 -51 -14 -28 28 -46 10 -19 -19 24 -26 47 -28 78 -6 46 32 22 85 -54 119
-61 27 -77 51 -49 71 16 12 21 12 35 -1 19 -17 40 -20 40 -6 0 12 -40 41 -55
41 -6 0 -21 -7 -33 -16z"/>
<path d="M480 1485 c7 -8 16 -15 21 -15 5 0 6 7 3 15 -4 8 -13 15 -21 15 -13
0 -13 -3 -3 -15z"/>
<path d="M512 1379 c2 -7 10 -15 17 -17 8 -3 12 1 9 9 -2 7 -10 15 -17 17 -8
3 -12 -1 -9 -9z"/>
<path d="M419 977 c-53 -15 -126 -56 -153 -85 -18 -21 -18 -21 29 -51 127 -81
280 -85 510 -15 44 13 86 28 93 32 16 11 -107 69 -213 101 -88 28 -205 35
-266 18z"/>
<path d="M1200 252 c6 -13 14 -21 18 -18 3 4 -2 14 -12 24 -18 16 -18 16 -6
-6z"/>
</g>
</svg>
